<?xml version="1.0" encoding="UTF-8"?>
<svg version="1.1" xmlns="http://www.w3.org/2000/svg" width="806" height="599">
<path d="M0 0 C0 4.29 0 8.58 0 13 C1.134375 13.04125 2.26875 13.0825 3.4375 13.125 C8.15876673 13.67846999 11.17503019 15.82160532 14.921875 18.625 C18.19654549 20.79169927 21.31797488 21.12104646 25.18603516 21.20532227 C26.00012848 21.22526749 26.8142218 21.24521271 27.65298462 21.26576233 C28.95784317 21.29083107 28.95784317 21.29083107 30.2890625 21.31640625 C31.1886972 21.33718735 32.08833191 21.35796844 33.01522827 21.37937927 C35.885076 21.44465474 38.75501445 21.50362973 41.625 21.5625 C43.56511332 21.60571073 45.50521768 21.64932584 47.4453125 21.69335938 C55.72193791 21.90847128 55.72193791 21.90847128 64 22 C64.66 21.34 65.32 20.68 66 20 C67.89168584 19.748151 67.89168584 19.748151 70.24858665 19.74552441 C71.14533462 19.73969221 72.04208258 19.73386002 72.96600473 19.72785109 C74.45313405 19.73352008 74.45313405 19.73352008 75.9703064 19.73930359 C77.54284571 19.73356527 77.54284571 19.73356527 79.1471535 19.72771102 C82.68327607 19.71733779 86.21923758 19.72138137 89.75537109 19.7253418 C92.28116507 19.72099769 94.80695773 19.71581556 97.33274841 19.70985413 C103.49541807 19.69781714 109.65802769 19.69531676 115.82070683 19.69765439 C120.82873488 19.69943494 125.83674969 19.69769356 130.84477615 19.69342995 C131.55661812 19.69283476 132.26846009 19.69223957 133.00187302 19.69162634 C134.44783603 19.69041463 135.89379904 19.6892005 137.33976205 19.68798397 C150.91179789 19.677098 164.48380892 19.67927577 178.05584617 19.68536881 C190.47847866 19.69053758 202.90103272 19.67928548 215.32364969 19.66027059 C228.07027964 19.64090892 240.81687246 19.63263334 253.56351721 19.63639385 C260.72332375 19.63830861 267.88306355 19.63579177 275.04285812 19.62167931 C281.77495861 19.60854455 288.50687641 19.61100282 295.23898506 19.62409019 C297.71419515 19.62646532 300.18941615 19.62368806 302.66461372 19.61546707 C306.03516978 19.60507699 309.40519009 19.61303817 312.77572632 19.6257782 C313.76268443 19.61840391 314.74964253 19.61102963 315.76650846 19.60343188 C316.66847192 19.61063842 317.57043538 19.61784497 318.49973106 19.62526989 C319.27783304 19.62521487 320.05593501 19.62515986 320.85761583 19.62510318 C323.54026416 20.09454108 324.95783107 21.24555404 327 23 C327.33 22.67 327.66 22.34 328 22 C330.85015401 21.87659521 333.67974771 21.81380209 336.53125 21.7890625 C338.30990457 21.76096431 340.08855026 21.73229971 341.8671875 21.703125 C344.67349723 21.66207136 347.47964654 21.62519262 350.28613281 21.59863281 C352.99319002 21.57078441 355.69949058 21.52488187 358.40625 21.4765625 C359.23161255 21.47330963 360.0569751 21.47005676 360.90734863 21.46670532 C367.68404272 21.32583106 374.23045095 20.29669921 379.5625 15.875 C383.0016715 13.22948346 385.71113898 13.29077024 390 13 C390 8.71 390 4.42 390 0 C415.64334995 -11.16239939 447.24926433 -11.81550608 473.5 -2.125 C476.02235926 -1.1274395 478.50740419 -0.07255495 481 1 C481.97839844 1.4021875 482.95679688 1.804375 483.96484375 2.21875 C486.29756078 3.30956239 488.14281614 4.21631946 490 6 C490.51171875 7.984375 490.51171875 7.984375 490.625 10.125 C490.810625 12.043125 490.810625 12.043125 491 14 C493.29598193 15.08301035 495.63477442 16.07796291 498 17 C499.62800088 19.36800129 500.7871434 21.43325697 502 24 C505.03668969 29.90362654 508.25590152 35.47365457 512.125 40.875 C532.67917836 69.84190803 544.99106928 102.06972907 552.80477905 136.44033813 C555.48451419 148.20252324 558.59448832 159.73904239 562.1661377 171.26132202 C574.93122427 212.44584666 583.07833951 254.66545918 591 297 C591.17098206 297.91102478 591.34196411 298.82204956 591.51812744 299.76068115 C596.75033593 327.75626023 598.17365236 355.46155525 598.40438843 383.88626099 C598.42613991 386.34229456 598.45538737 388.79827538 598.49282837 391.25411987 C598.92969976 422.75014528 591.92179463 452.98411818 569.875 476.5625 C554.76601531 491.21208989 534.65141169 497.46887555 514.07446289 497.43164062 C505.60853678 497.27182106 499.52551438 496.02801684 492 492 C490.79591444 491.42104835 489.59008892 490.84570553 488.3828125 490.2734375 C434.55221437 463.99823746 415.42374747 396.63512364 396.56689453 344.4230957 C392.31236564 329.40922946 392.31236564 329.40922946 382 319 C379.55154935 318.13424032 379.55154935 318.13424032 377 318 C375.15163794 319.12499553 375.15163794 319.12499553 373.5625 320.9375 C358.40155596 335.24027739 338.30730685 339.7799234 318.06640625 339.3046875 C300.314639 338.4958139 282.56992223 330.56992223 270 318 C267.37059804 317.80034627 264.84879837 317.7201589 262.21875 317.734375 C261.44946167 317.73246155 260.68017334 317.7305481 259.88757324 317.72857666 C258.2601692 317.72721492 256.6327543 317.73091061 255.00537109 317.73925781 C252.50984369 317.74995779 250.01503618 317.73936249 247.51953125 317.7265625 C245.94010257 317.7278841 244.36067434 317.7304465 242.78125 317.734375 C241.65777161 317.72830231 241.65777161 317.72830231 240.51159668 317.72210693 C236.29688852 317.61812798 236.29688852 317.61812798 233 320 C230.56062946 320.18769518 228.23585272 320.25198605 225.79638672 320.22705078 C225.0548233 320.22734283 224.31325989 320.22763489 223.54922485 320.22793579 C221.09259429 320.22653994 218.63626522 320.21096698 216.1796875 320.1953125 C214.47860886 320.19158327 212.77752808 320.18873587 211.07644653 320.18673706 C206.59489024 320.17909349 202.11346317 320.15943884 197.63195801 320.1373291 C193.06064604 320.11688622 188.48931323 320.10773868 183.91796875 320.09765625 C174.94525566 320.07619359 165.97263857 320.04204896 157 320 C156.67 319.01 156.34 318.02 156 317 C151.03664103 316.94481324 146.0769888 316.94275334 141.11352539 316.98779297 C139.42896301 316.99585385 137.74426888 316.98994273 136.05981445 316.96923828 C124.55636511 316.5355335 124.55636511 316.5355335 114.79296875 321.796875 C113.52349409 323.19325041 112.25866267 324.5938711 111 326 C108.69496105 327.65666197 106.27919339 328.9682791 103.75 330.25 C103.11521729 330.58008057 102.48043457 330.91016113 101.82641602 331.25024414 C83.96240983 340.24112003 62.11138837 342.11651496 43 336 C33.4286007 332.64594036 25.32628933 328.30666774 17.453125 321.91796875 C14.4455217 319.54437922 14.4455217 319.54437922 11 318 C8.90362167 318.47152647 8.90362167 318.47152647 6.9375 319.625 C5.93009766 320.13933594 5.93009766 320.13933594 4.90234375 320.6640625 C0.08333186 324.04825565 -1.26986475 329.04339516 -3.08203125 334.3828125 C-3.68296532 336.1083412 -4.28421598 337.83375966 -4.88574219 339.55908203 C-5.19942749 340.46644104 -5.51311279 341.37380005 -5.83630371 342.30865479 C-39.30500413 438.86650419 -39.30500413 438.86650419 -70 470 C-70.77859375 470.79148437 -71.5571875 471.58296875 -72.359375 472.3984375 C-82.74564189 482.33161221 -95.72533816 489.64673038 -109 495 C-109.8765625 495.37253906 -110.753125 495.74507812 -111.65625 496.12890625 C-131.63510255 501.33367742 -151.77286963 495.01677756 -169 485 C-172.21890991 482.87374758 -175.12664167 480.57089956 -178 478 C-179.12148437 477.01773438 -179.12148437 477.01773438 -180.265625 476.015625 C-196.48927897 460.89562096 -206.66797741 434.43306539 -208.18829346 412.25296021 C-208.26230775 409.29056206 -208.27701104 406.33439087 -208.265625 403.37109375 C-208.26853546 402.2760704 -208.27144592 401.18104706 -208.27444458 400.05284119 C-208.27891331 396.51425157 -208.26642005 392.97605093 -208.25 389.4375 C-208.24623352 388.22515686 -208.24246704 387.01281372 -208.23858643 385.76373291 C-208.12226149 353.88280638 -205.93578418 323.3255996 -200 292 C-199.8159259 291.02347473 -199.63185181 290.04694946 -199.44219971 289.04083252 C-194.45164812 262.59376679 -189.34410994 236.16088553 -183 210 C-182.73155273 208.89043945 -182.46310547 207.78087891 -182.18652344 206.63769531 C-178.76295778 192.6455539 -174.77437402 178.87566003 -170.48284912 165.13082886 C-166.89662021 153.59166196 -164.0056077 141.96403739 -161.3125 130.1875 C-153.12354063 94.67795382 -138.17839749 62.66786556 -116.96484375 32.9765625 C-114.33519554 28.99288072 -112.32982144 24.81395433 -110.38671875 20.4609375 C-108.48478051 17.08566682 -106.44143522 15.44043854 -102.75 14.3125 C-102.1725 14.209375 -101.595 14.10625 -101 14 C-100.98453125 12.76765625 -100.9690625 11.5353125 -100.953125 10.265625 C-100.66992188 8.04882812 -100.66992188 8.04882812 -100 6 C-97.44453719 4.05479697 -95.62677217 2.96969084 -92.75 1.75 C-92.02707764 1.41919434 -91.30415527 1.08838867 -90.55932617 0.74755859 C-84.20668784 -2.08530861 -77.76868088 -4.37620029 -71 -6 C-70.0821875 -6.22429687 -69.164375 -6.44859375 -68.21875 -6.6796875 C-45.88696106 -11.06200092 -20.85104364 -9.07633664 0 0 Z " fill="#0F0F0F" transform="translate(208,102)"/>
<path d="M0 0 C84.48 0 168.96 0 256 0 C256.0928125 33.474375 256.0928125 33.474375 256.1875 67.625 C256.21481201 74.67053223 256.24212402 81.71606445 256.27026367 88.97509766 C256.28381348 97.58081055 256.28381348 97.58081055 256.28633118 101.60995483 C256.28912533 104.42309675 256.30036438 107.2360687 256.31672668 110.04916382 C256.33733448 113.63984327 256.3434679 117.23027629 256.33921683 120.8210094 C256.34052411 122.75735692 256.3565991 124.69367732 256.37328625 126.62995338 C256.33313151 137.80619228 256.33313151 137.80619228 253 142 C247.27500141 146.71279373 242.42884018 147.72522599 235.15682983 147.62818909 C234.19459303 147.63528347 233.23235622 147.64237786 232.24096072 147.64968723 C229.03181044 147.66722333 225.82387832 147.64918425 222.61474609 147.63110352 C220.3080541 147.63624391 218.00136603 147.64352609 215.69468689 147.65278625 C209.44067684 147.67129072 203.18709344 147.65836807 196.93310118 147.63869596 C190.3869245 147.62230448 183.84077474 147.63112288 177.29458618 147.63621521 C166.30407164 147.64165243 155.31371781 147.62497669 144.32324219 147.59692383 C133.02076142 147.56807509 121.71852313 147.56101021 110.41601562 147.57641602 C96.78412807 147.5949715 83.15241558 147.59323826 69.52052689 147.57420158 C64.31728751 147.56732731 59.11413824 147.56836742 53.91090012 147.57574654 C47.78600976 147.58340314 41.66146899 147.57130312 35.53663826 147.54389763 C33.28803228 147.53700685 31.03939369 147.5369232 28.79078865 147.54411316 C25.72320228 147.5527922 22.65669866 147.53687724 19.58920288 147.5146637 C18.69776404 147.52290446 17.80632519 147.53114523 16.88787305 147.53963572 C11.45166273 147.46689252 8.28148911 146.66660284 4 143 C-1.18789172 136.99335241 -0.54116871 129.17607277 -0.45410156 121.69921875 C-0.45287437 120.34658352 -0.45341334 118.99394573 -0.45556259 117.64131165 C-0.45646086 114.03858679 -0.43337987 110.43639984 -0.40512085 106.83380127 C-0.38223889 103.44582537 -0.3812629 100.05797632 -0.37841797 96.66992188 C-0.35747887 86.77987745 -0.30163382 76.88993181 -0.25 67 C-0.1675 44.89 -0.085 22.78 0 0 Z " fill="#DEDEDE" transform="translate(275,122)"/>
<path d="M0 0 C2.35600826 2.35600826 2.48147641 3.45787578 3.09741211 6.6796875 C3.28778549 7.65671631 3.47815887 8.63374512 3.67430115 9.64038086 C3.97280724 11.24151733 3.97280724 11.24151733 4.27734375 12.875 C4.48935928 13.98689697 4.70137482 15.09879395 4.91981506 16.24438477 C5.3699715 18.61775072 5.81608974 20.99188551 6.25854492 23.36669922 C6.91965747 26.90451905 7.59840715 30.43859728 8.27929688 33.97265625 C13.98880036 64.03984046 16.19906774 93.65262204 16.35009766 124.20556641 C16.36667558 126.64837153 16.39398932 129.09112778 16.43212891 131.53369141 C16.92250277 163.33976633 10.17330906 193.71513108 -12.125 217.5625 C-27.23398469 232.21208989 -47.34858831 238.46887555 -67.92553711 238.43164062 C-76.39146322 238.27182106 -82.47448562 237.02801684 -90 233 C-91.20408556 232.42104835 -92.40991108 231.84570553 -93.6171875 231.2734375 C-126.21312213 215.36306807 -142.98122549 186.16584389 -157.91015625 154.6640625 C-158.51549194 153.38716553 -158.51549194 153.38716553 -159.13305664 152.08447266 C-160 150 -160 150 -160 148 C-159.34741211 147.8548999 -158.69482422 147.7097998 -158.02246094 147.56030273 C-105.67928627 135.7945471 -62.04590618 113.57954867 -32.39550781 67.50683594 C-28.79011795 61.75117635 -25.36547362 55.89842892 -22 50 C-21.5982959 49.30648437 -21.1965918 48.61296875 -20.78271484 47.8984375 C-12.13165667 32.85952938 -5.36833806 16.48114953 0 0 Z " fill="#EEEEEE" transform="translate(790,361)"/>
<path d="M0 0 C1.83443459 2.75165188 2.91543853 5.10066616 4.1015625 8.1640625 C4.50479736 9.19490967 4.90803223 10.22575684 5.32348633 11.2878418 C5.75298584 12.389104 6.18248535 13.49036621 6.625 14.625 C17.65736852 42.43036543 31.70189909 68.00246078 51 91 C51.67289062 91.80824219 52.34578125 92.61648438 53.0390625 93.44921875 C80.52228275 125.27978475 121.2116724 139.08167044 161 148 C158.7825715 155.27829421 155.80204682 161.90187182 152.375 168.6875 C151.84156982 169.74606201 151.30813965 170.80462402 150.75854492 171.89526367 C137.80820871 197.25076089 120.3996414 217.42731394 95.1875 230.9375 C94.50679443 231.30302979 93.82608887 231.66855957 93.12475586 232.04516602 C84.23255895 236.6455421 76.48276343 238.56351655 66.4375 238.5 C65.38191895 238.49427979 64.32633789 238.48855957 63.23876953 238.48266602 C45.59044832 238.08321842 28.17263646 230.78604315 15 219 C13.87851562 218.01773438 13.87851562 218.01773438 12.734375 217.015625 C-3.48927897 201.89562096 -13.66797741 175.43306539 -15.18829346 153.25296021 C-15.26230775 150.29056206 -15.27701104 147.33439087 -15.265625 144.37109375 C-15.26853546 143.2760704 -15.27144592 142.18104706 -15.27444458 141.05284119 C-15.27891331 137.51425157 -15.26642005 133.97605093 -15.25 130.4375 C-15.24623352 129.22515686 -15.24246704 128.01281372 -15.23858643 126.76373291 C-15.1251869 95.68456572 -13.09954077 65.83807557 -7.41973877 35.2701416 C-6.84689656 32.17194571 -6.28826285 29.07123794 -5.72866821 25.97062683 C-5.05560389 22.24989888 -4.37308919 18.53093822 -3.6875 14.8125 C-3.5587146 14.11220673 -3.4299292 13.41191345 -3.29724121 12.69039917 C-2.93589847 10.73674132 -2.5677457 8.78434666 -2.19921875 6.83203125 C-1.88730591 5.17264526 -1.88730591 5.17264526 -1.5690918 3.47973633 C-1 1 -1 1 0 0 Z " fill="#EEEEEE" transform="translate(15,361)"/>
<path d="M0 0 C10.13098815 7.69793103 17.45823833 18.89766774 20.07617188 31.48388672 C22.05467319 47.03490705 18.79800655 61.56489012 9.46289062 74.28466797 C-0.20736558 85.71944319 -12.57581818 91.91731199 -27.40820312 93.49169922 C-41.77209114 94.12446962 -54.91968386 89.63169078 -65.84570312 80.30419922 C-75.94844068 70.60686847 -82.47833511 58.63912605 -82.82592773 44.46264648 C-82.95919762 28.65288891 -78.73195815 16.09575611 -67.84570312 4.30419922 C-49.21799241 -13.24259985 -20.65049502 -14.89195003 0 0 Z " fill="#000000" transform="translate(562.533203125,314.44580078125)"/>
<path d="M0 0 C10.57922234 7.97109357 17.95420098 18.80238342 20.53515625 31.91015625 C22.20888453 47.94346748 19.4737775 61.90255379 9.53515625 74.91015625 C0.19634723 86.09342859 -12.53135017 92.28490064 -26.96484375 93.78515625 C-41.20135397 94.46389333 -54.26948115 90.46153848 -65.1484375 81.13671875 C-76.45512977 70.26856598 -82.28897957 57.68315847 -82.77734375 42.03515625 C-82.47814038 28.27180113 -77.34097198 15.00289184 -67.78125 5.0078125 C-48.5038986 -12.44908075 -21.5224748 -14.58573472 0 0 Z " fill="#000000" transform="translate(305.46484375,314.08984375)"/>
<path d="M0 0 C2.30459212 4.52258292 4.23637393 9.20185248 6.16992188 13.89257812 C7.71937791 17.52400834 9.38767095 20.6983006 11.73046875 23.88671875 C14 27 14 27 14 29 C14.66 29 15.32 29 16 29 C16 29.66 16 30.32 16 31 C16.66 31 17.32 31 18 31 C18 31.66 18 32.32 18 33 C18.51433594 33.24492188 19.02867188 33.48984375 19.55859375 33.7421875 C22.11972613 35.0616829 24.58930906 36.51085996 27.07299805 37.96948242 C60.62509236 57.45678913 104.59939141 69.15776722 143 59 C150.67802651 56.76625272 157.96816541 53.79719068 165 50 C161.0195081 63.74883419 151.57244471 75.64873213 142 86 C141.27296875 86.80824219 140.5459375 87.61648438 139.796875 88.44921875 C131.30077352 97.46452643 121.04494507 104.12444313 110.1875 109.9375 C109.506875 110.30294922 108.82625 110.66839844 108.125 111.04492188 C99.23296184 115.64573466 91.48274048 117.56351641 81.4375 117.5 C80.38191895 117.49427979 79.32633789 117.48855957 78.23876953 117.48266602 C60.59044832 117.08321842 43.17263646 109.78604315 30 98 C28.87851562 97.01773438 28.87851562 97.01773438 27.734375 96.015625 C13.38220103 82.6397894 6.70208126 63.59867812 2 45 C1.80873535 44.30600098 1.6174707 43.61200195 1.42041016 42.89697266 C-0.65654436 34.33801359 -0.21862248 25.61898675 -0.125 16.875 C-0.11494877 15.23438047 -0.10582672 13.59375497 -0.09765625 11.953125 C-0.07581549 7.96860035 -0.0414043 3.98436741 0 0 Z " fill="#CCCCCC" transform="translate(0,482)"/>
<path d="M0 0 C0.33 0 0.66 0 1 0 C2.05376153 37.0243167 2.05376153 37.0243167 -4 55 C-4.36085693 56.10794922 -4.36085693 56.10794922 -4.72900391 57.23828125 C-11.97723336 79.13367055 -24.21159039 97.11301592 -45 108 C-60.63736746 115.29955973 -78.72573868 119.66015484 -95.9296875 115.16015625 C-99.11364906 113.98105827 -102.00739304 112.60178701 -105 111 C-106.20408556 110.42104835 -107.40991108 109.84570553 -108.6171875 109.2734375 C-131.32543317 98.18933816 -147.77316398 79.9103537 -160.1875 58.25 C-160.58662598 57.55817627 -160.98575195 56.86635254 -161.39697266 56.15356445 C-162.33156233 54.47117669 -163.17512458 52.73881194 -164 51 C-163.67 50.34 -163.34 49.68 -163 49 C-162.175 49.45890625 -161.35 49.9178125 -160.5 50.390625 C-131.02464396 66.04940789 -95.44350944 63.1758157 -64.32666016 53.72998047 C-42.34349273 46.83284819 -18.58765026 38.13042107 -7 17 C-6.60039063 16.28585937 -6.20078125 15.57171875 -5.7890625 14.8359375 C-3.27130703 10.08438394 -1.56875449 5.13410562 0 0 Z " fill="#CDCDCD" transform="translate(805,483)"/>
<path d="M0 0 C22.60828959 13.94286448 27.04767824 39.99872164 32.83300781 63.93994141 C34.68387687 71.80767901 36.27357434 79.71909595 37.7109375 87.671875 C31.06359611 87.80813367 24.52155616 87.48788352 17.89575195 86.95996094 C-8.98625449 84.8220107 -35.44221785 85.841353 -62.2890625 87.671875 C-62.4979795 78.56243049 -61.95438544 69.59344002 -61.17211914 60.52709961 C-60.97722198 58.24210684 -60.79783899 55.95623137 -60.61914062 53.66992188 C-59.16883046 36.03732265 -56.07009337 19.05257531 -42.2890625 6.671875 C-29.50395994 -3.36735418 -15.451311 -7.53515988 0 0 Z " fill="#EAEAEA" transform="translate(660.2890625,3.328125)"/>
<path d="M0 0 C0.62390625 0.48082031 1.2478125 0.96164063 1.890625 1.45703125 C2.78265625 2.11316406 3.6746875 2.76929688 4.59375 3.4453125 C10.29280905 7.85674992 15.19408338 12.24208554 18.890625 18.45703125 C19.67566406 19.76994141 19.67566406 19.76994141 20.4765625 21.109375 C30.58548847 40.26702251 30.19491622 67.27108023 29.890625 88.45703125 C29.00205811 88.39644531 28.11349121 88.33585937 27.19799805 88.2734375 C0.05129257 86.45748756 -26.56792285 85.85468523 -53.73828125 88.01953125 C-59.20768273 88.43868011 -64.62616028 88.5694274 -70.109375 88.45703125 C-57.20599865 18.16969546 -57.20599865 18.16969546 -35.546875 3.01953125 C-25.84444307 -2.83509861 -10.45352681 -6.66294614 0 0 Z " fill="#EAEAEA" transform="translate(178.109375,2.54296875)"/>
<path d="M0 0 C0 4.29 0 8.58 0 13 C-1.34320313 12.9278125 -2.68640625 12.855625 -4.0703125 12.78125 C-18.18088747 12.09775575 -32.28216338 11.86565238 -46.40789795 11.82275391 C-48.40062939 11.81600936 -50.39335271 11.80585183 -52.38604736 11.79199219 C-63.21196848 11.72276313 -73.85074143 11.93245787 -84.60191345 13.29804993 C-89.77522745 13.9483707 -94.78365973 14.08137967 -100 14 C-100 11.36 -100 8.72 -100 6 C-90.57058221 1.0129395 -81.44062769 -3.49530396 -71 -6 C-70.0821875 -6.22429687 -69.164375 -6.44859375 -68.21875 -6.6796875 C-45.88696106 -11.06200092 -20.85104364 -9.07633664 0 0 Z " fill="#E8E8E8" transform="translate(208,102)"/>
<path d="M0 0 C0 2.64 0 5.28 0 8 C-1.19616943 7.85852539 -2.39233887 7.71705078 -3.62475586 7.57128906 C-17.42863986 6.04263887 -31.10301217 5.68981483 -44.98413086 5.73925781 C-48.56185807 5.74999807 -52.13908454 5.73928325 -55.71679688 5.7265625 C-74.29206931 5.7155949 -92.91664544 6.35586576 -111 11 C-109.58480285 8.9656541 -108.45017877 8.09589607 -106.01953125 7.578125 C-104.01823046 7.33726048 -102.0090056 7.16467259 -100 7 C-100 2.71 -100 -1.58 -100 -6 C-69.05361742 -19.4707783 -28.91330928 -18.15113305 0 0 Z " fill="#E9E9E9" transform="translate(698,108)"/>
<path d="M0 0 C4.29139071 3.15868458 7.84189894 7.37122523 9.8203125 12.33984375 C10.51131238 18.78319329 10.67573022 24.88908077 6.8203125 30.33984375 C2.55729144 35.04009774 -1.32446478 39.05056297 -7.88671875 39.54296875 C-15.43212152 39.65686162 -19.87867852 39.09068457 -25.8046875 34.15234375 C-30.85736614 28.16890852 -32.94709422 22.94131454 -32.62890625 15.01953125 C-31.66764233 9.28538297 -28.43816134 5.25996033 -24.1796875 1.46484375 C-16.69583951 -3.83621525 -8.12480051 -4.62159705 0 0 Z " fill="#070707" transform="translate(414.1796875,343.66015625)"/>
<path d="M0 0 C1.53125 1.3515625 1.53125 1.3515625 2.53125 4.3515625 C3.19125 4.3515625 3.85125 4.3515625 4.53125 4.3515625 C8.16741696 10.48759424 9.60412628 15.21748824 8.53125 22.3515625 C6.71951303 29.00889183 3.41464646 33.7194065 -2.46875 37.3515625 C-8.40925607 40.31638546 -14.03834352 41.21329653 -20.46875 39.3515625 C-26.9719203 36.41048909 -31.57762314 32.13381622 -34.78125 25.7265625 C-36.0012017 19.73770871 -37.06612755 13.38843726 -34.125 7.796875 C-32.66359999 5.85983064 -31.1733222 4.07642722 -29.46875 2.3515625 C-28.994375 2.9909375 -28.52 3.6303125 -28.03125 4.2890625 C-24.44243812 8.57813036 -20.45887444 12.43817122 -16.46875 16.3515625 C-18.37844545 20.7408625 -21.46093635 23.76633014 -24.69140625 27.23046875 C-26.66140332 29.31798477 -26.66140332 29.31798477 -27.46875 32.3515625 C-23.60159962 30.22909453 -20.72469323 27.82410105 -17.65625 24.6640625 C-16.47095703 23.45169922 -16.47095703 23.45169922 -15.26171875 22.21484375 C-14.67003906 21.59996094 -14.07835937 20.98507812 -13.46875 20.3515625 C-6.94030689 25.85305951 -6.94030689 25.85305951 -4.28125 28.6640625 C-2.32470291 30.48567531 -1.08451296 30.97788208 1.53125 31.3515625 C-1.10357263 26.08191723 -5.26818911 22.37252696 -9.46875 18.3515625 C-8.00647972 14.9293907 -6.10285368 12.82905762 -3.40625 10.2890625 C-0.21605313 7.30642298 -0.21605313 7.30642298 1.53125 3.3515625 C-2.76593953 4.74070725 -5.17562757 6.73188235 -8.28125 9.9765625 C-9.46654297 11.20246094 -9.46654297 11.20246094 -10.67578125 12.453125 C-11.26746094 13.07960938 -11.85914063 13.70609375 -12.46875 14.3515625 C-16.54251031 12.74145723 -19.23382069 9.81333979 -22.21875 6.7265625 C-22.72535156 6.2109375 -23.23195313 5.6953125 -23.75390625 5.1640625 C-24.99678902 3.89772911 -26.23340276 2.6252481 -27.46875 1.3515625 C-19.91806349 -7.1014073 -8.66881479 -5.60720957 0 0 Z " fill="#050505" transform="translate(665.46875,284.6484375)"/>
<path d="M0 0 C4.05979635 4.32789611 6.2896015 9.61639584 6.74609375 15.5625 C6.48448322 21.97764525 4.92898282 27.91795332 0.59375 32.765625 C-4.11657472 36.89087781 -9.48804617 38.61880184 -15.703125 38.85546875 C-22.49784714 38.39858226 -28.19194991 36.07881009 -32.84375 31.078125 C-34.34375 28.765625 -34.34375 28.765625 -34.34375 27.765625 C-22.13375 27.765625 -9.92375 27.765625 2.65625 27.765625 C0.70385234 23.86082967 -0.97047288 20.65737532 -3.41015625 17.1640625 C-4.2619043 15.93429688 -4.2619043 15.93429688 -5.13085938 14.6796875 C-5.71673828 13.84179688 -6.30261719 13.00390625 -6.90625 12.140625 C-8.07654745 10.46255915 -9.24460411 8.78292781 -10.41015625 7.1015625 C-10.92521729 6.36470215 -11.44027832 5.6278418 -11.97094727 4.86865234 C-13.26393388 2.8878971 -14.33447435 0.90245315 -15.34375 -1.234375 C-16.00375 -1.234375 -16.66375 -1.234375 -17.34375 -1.234375 C-18.89417006 0.83621189 -18.89417006 0.83621189 -20.46875 3.515625 C-23.10977286 7.77765145 -25.7748572 12.01443837 -28.53125 16.203125 C-29.16417969 17.17121094 -29.79710937 18.13929688 -30.44921875 19.13671875 C-32.23824987 21.61922998 -34.1160539 23.67623376 -36.34375 25.765625 C-38.90215913 18.69237624 -38.77419056 12.54835101 -35.78125 5.578125 C-32.68063245 -0.02985115 -27.59624351 -3.7666769 -21.53125 -5.734375 C-13.67934993 -7.21528346 -6.05627671 -5.11308607 0 0 Z " fill="#010102" transform="translate(668.34375,171.234375)"/>
<path d="M0 0 C3.07824233 -0.00965723 6.15580157 -0.04074099 9.23388672 -0.07226562 C22.1369776 -0.13901646 34.42096987 0.91316615 47.11279297 3.24023438 C47.11279297 6.21023437 47.11279297 9.18023437 47.11279297 12.24023438 C45.77994263 12.14935547 45.77994263 12.14935547 44.42016602 12.05664062 C17.27346054 10.24069069 -9.34575488 9.63788835 -36.51611328 11.80273438 C-41.98551477 12.22188324 -47.40399231 12.35263052 -52.88720703 12.24023438 C-52.22720703 9.60023437 -51.56720703 6.96023437 -50.88720703 4.24023438 C-47.97140194 3.75528353 -45.05471949 3.27721636 -42.13720703 2.80273438 C-41.33154297 2.66802734 -40.52587891 2.53332031 -39.69580078 2.39453125 C-26.48221228 0.26162917 -13.35660341 0.02522891 0 0 Z " fill="#C6C6C6" transform="translate(160.88720703125,78.759765625)"/>
<path d="M0 0 C1.8871875 0.0309375 1.8871875 0.0309375 3.8125 0.0625 C3.8125 0.7225 3.8125 1.3825 3.8125 2.0625 C4.59625 2.330625 5.38 2.59875 6.1875 2.875 C8.8125 4.0625 8.8125 4.0625 10.8125 7.0625 C11.28552142 11.67267011 11.18286358 16.30571896 11.1875 20.9375 C11.21199219 22.21753906 11.23648438 23.49757812 11.26171875 24.81640625 C11.26751953 26.66685547 11.26751953 26.66685547 11.2734375 28.5546875 C11.28165527 29.68245605 11.28987305 30.81022461 11.29833984 31.97216797 C10.70469138 35.74824948 9.45373529 37.34837832 6.8125 40.0625 C2.57918568 42.88470955 -1.21618595 42.84869823 -6.1875 42.0625 C-9.59819223 39.50448083 -11.57389702 36.96743671 -13.1875 33.0625 C-13.68730744 28.97127322 -13.64982266 24.86860376 -13.6875 20.75 C-13.72875 19.63431641 -13.77 18.51863281 -13.8125 17.36914062 C-13.86350797 11.9909873 -13.8620649 8.09602861 -10.34375 3.83203125 C-7.20099688 0.65258659 -4.40374273 -0.0721925 0 0 Z " fill="#D9D9D9" transform="translate(566.1875,143.9375)"/>
<path d="M0 0 C5.59528028 3.40931057 5.59528028 3.40931057 6.8671875 5.953125 C7.1666446 10.55154691 7.14532388 15.15860917 7.1796875 19.765625 C7.20869141 21.05017578 7.23769531 22.33472656 7.26757812 23.65820312 C7.27595703 24.89634766 7.28433594 26.13449219 7.29296875 27.41015625 C7.30755127 28.54428955 7.32213379 29.67842285 7.3371582 30.84692383 C6.76280312 34.64303796 5.52221379 36.2303057 2.8671875 38.953125 C-0.3185448 41.07694653 -1.7090132 41.40807525 -5.4453125 41.640625 C-6.36957031 41.72699219 -7.29382813 41.81335938 -8.24609375 41.90234375 C-12.32214148 40.5620466 -13.75338538 38.36796064 -15.9440918 34.75854492 C-18.15733028 29.53522937 -17.99691953 24.36003913 -17.8828125 18.765625 C-17.90601563 17.61642578 -17.92921875 16.46722656 -17.953125 15.28320312 C-17.88842683 5.9720585 -17.88842683 5.9720585 -14.2734375 2.21484375 C-9.71750132 -1.06611029 -5.3090207 -2.60589295 0 0 Z " fill="#D9D9D9" transform="translate(246.1328125,145.046875)"/>
<path d="M0 0 C1.02006134 0.00265869 2.04012268 0.00531738 3.09109497 0.00805664 C18.5095141 0.0551676 33.52961215 0.75777875 48.75 3.375 C49.74 7.83 49.74 7.83 50.75 12.375 C44.09404049 12.47499564 37.56915939 12.19168902 30.93481445 11.66308594 C4.05280801 9.5251357 -22.40315535 10.544478 -49.25 12.375 C-49.5625 9.5625 -49.5625 9.5625 -49.25 6.375 C-45.30692641 2.72851149 -40.02332811 2.39662481 -34.890625 1.7109375 C-33.96952942 1.58480072 -33.04843384 1.45866394 -32.09942627 1.32870483 C-21.40892143 -0.01703577 -10.75913742 -0.08141494 0 0 Z " fill="#C6C6C6" transform="translate(647.25,78.625)"/>
<path d="M0 0 C4.02762816 2.72929395 7.43809967 5.31429901 9 10 C9.51853818 14.9388636 9.55199525 18.85354834 7.375 23.375 C4.12089625 26.97164099 1.52576116 29.6802834 -3.46875 30.3125 C-8.80286164 30.43800851 -12.52117073 30.14793169 -16.66796875 26.5546875 C-19.98009033 22.89347341 -21.90640608 19.98890953 -22.16796875 14.98046875 C-21.7602481 10.17315783 -19.68696742 6.83550092 -16.6875 3.1875 C-11.65934777 -0.90518205 -6.23073542 -2.21614612 0 0 Z " fill="#060606" transform="translate(716,230)"/>
<path d="M0 0 C6.49596477 4.34330588 10.34171639 9.29589075 12 17 C12.51273576 24.06079875 10.49832746 29.5594553 6 35 C5.67 35 5.34 35 5 35 C4.67 25.76 4.34 16.52 4 7 C-5.57 6.67 -15.14 6.34 -25 6 C-24.67 15.57 -24.34 25.14 -24 35 C-10.14 35.495 -10.14 35.495 4 36 C-0.66819874 40.66819874 -3.85711908 42.03761075 -10.3125 42.375 C-16.24741228 42.20514561 -21.23850032 40.32230692 -25.79296875 36.4921875 C-30.25180719 31.75811211 -32.82651922 26.24305082 -33.09375 19.70703125 C-32.67372298 13.60613874 -30.89589702 7.76937725 -26.390625 3.4609375 C-18.74322266 -2.32537135 -8.85201656 -4.33183789 0 0 Z " fill="#000000" transform="translate(605,224)"/>
<path d="M0 0 C3.28231903 1.35678323 4.5417198 2.43567148 6.0625 5.625 C8.99394377 11.29307641 12.65332128 16.39845165 16.34204102 21.59033203 C16.81311279 22.2604834 17.28418457 22.93063477 17.76953125 23.62109375 C18.19854736 24.2236499 18.62756348 24.82620605 19.06958008 25.44702148 C20 27 20 27 20 29 C7.79 29 -4.42 29 -17 29 C-16.13708318 24.68541589 -15.73170693 23.16592303 -13.41796875 19.78515625 C-12.89783203 19.01623047 -12.37769531 18.24730469 -11.84179688 17.45507812 C-11.29587891 16.66552734 -10.74996094 15.87597656 -10.1875 15.0625 C-9.65318359 14.27681641 -9.11886719 13.49113281 -8.56835938 12.68164062 C-7.52835666 11.15297736 -6.48533442 9.626363 -5.43896484 8.10205078 C-3.60120954 5.41744386 -1.79759079 2.71162001 0 0 Z " fill="#DEDFE0" transform="translate(651,169)"/>
<path d="M0 0 C0 1.32 0 2.64 0 4 C-6.82401505 3.48033553 -13.52851046 2.66354537 -20.2734375 1.5 C-30.98816906 0.06238403 -41.76179595 -0.271756 -52.5625 -0.3125 C-53.25910736 -0.31545074 -53.95571472 -0.31840149 -54.6734314 -0.32144165 C-66.50346685 -0.33277683 -77.56648702 0.89414619 -89 4 C-90.80791016 4.46212891 -90.80791016 4.46212891 -92.65234375 4.93359375 C-95.11629119 5.58298217 -97.56156025 6.26175677 -100 7 C-91.68624645 -2.66115499 -72.45796099 -6.73612977 -60.21435547 -7.85498047 C-39.58123722 -9.20625635 -19.05430516 -8.65482802 0 0 Z " fill="#C5C5C5" transform="translate(208,102)"/>
<path d="M0 0 C0.99 0.99 0.99 0.99 2 2 C-0.9296875 1.51171875 -3.859375 1.0234375 -6.7890625 0.53515625 C-7.84867188 0.35855469 -8.90828125 0.18195313 -10 0 C-10.91499268 -0.17257324 -11.82998535 -0.34514648 -12.77270508 -0.52294922 C-18.82771525 -1.4179859 -24.95281157 -1.19614937 -31.0625 -1.1875 C-31.77763763 -1.18722809 -32.49277527 -1.18695618 -33.22958374 -1.18667603 C-50.51923473 -1.15646669 -67.25445589 0.52321744 -84.2890625 3.4140625 C-88 4 -88 4 -91 4 C-91 2.35 -91 0.7 -91 -1 C-63.06279486 -13.68961024 -27.77391149 -12.57356144 0 0 Z " fill="#C5C5C5" transform="translate(689,103)"/>
<path d="M0 0 C7.26 0 14.52 0 22 0 C22 7.26 22 14.52 22 22 C14.74 22 7.48 22 0 22 C0 14.74 0 7.48 0 0 Z " fill="#000000" transform="translate(584,234)"/>
<path d="M0 0 C5.14592159 2.77432295 8.54904803 6.96298703 10.796875 12.28125 C11.62145462 18.45600898 11.27676865 24.1039439 8.140625 29.55859375 C5.13327256 33.41394964 1.38957351 35.7503505 -3.203125 37.28125 C-9.38583809 37.85229988 -15.95631379 37.96971343 -21.203125 34.28125 C-25.60899428 29.45173944 -27.58239401 24.61381217 -27.828125 18.09375 C-27.48321498 11.97943599 -26.11600212 8.19412712 -21.70703125 3.78515625 C-15.72697727 -1.47908079 -7.59195321 -2.47680743 0 0 Z M-20.015625 7.59375 C-23.41683499 11.77237942 -24.17911619 14.79270364 -24.265625 20.15625 C-23.45772072 25.33282184 -20.04543094 28.91713497 -16.203125 32.28125 C-10.62072048 34.14205151 -5.15180531 34.21950348 0.171875 31.65625 C3.76851599 28.40214625 6.4771584 25.80701116 7.109375 20.8125 C7.23488351 15.47838836 6.94480669 11.76007927 3.3515625 7.61328125 C-0.30965159 4.30115967 -3.21421547 2.37484392 -8.22265625 2.11328125 C-13.02996717 2.5210019 -16.36762408 4.59428258 -20.015625 7.59375 Z " fill="#E2E3E3" transform="translate(718.203125,226.71875)"/>
<path d="M0 0 C4.1117256 -0.02465746 8.22342278 -0.04283959 12.33520508 -0.05493164 C13.73495228 -0.0599708 15.1346942 -0.06680216 16.53442383 -0.07543945 C18.54245777 -0.0875232 20.55052957 -0.09269807 22.55859375 -0.09765625 C24.37315063 -0.10551147 24.37315063 -0.10551147 26.22436523 -0.11352539 C29 0 29 0 30 1 C30.09993532 3.0605531 30.13080906 5.1245259 30.1328125 7.1875 C30.13474609 9.07082031 30.13474609 9.07082031 30.13671875 10.9921875 C30.13357666 11.97783691 30.13357666 11.97783691 30.13037109 12.98339844 C30.12502234 14.99161335 30.13031691 16.99960459 30.13671875 19.0078125 C30.13542969 20.26335937 30.13414062 21.51890625 30.1328125 22.8125 C30.13168457 23.97394531 30.13055664 25.13539063 30.12939453 26.33203125 C30 29 30 29 29 30 C26.9394469 30.09993532 24.8754741 30.13080906 22.8125 30.1328125 C21.55695312 30.13410156 20.30140625 30.13539063 19.0078125 30.13671875 C18.35071289 30.13462402 17.69361328 30.1325293 17.01660156 30.13037109 C15.00838665 30.12502234 13.00039541 30.13031691 10.9921875 30.13671875 C9.73664062 30.13542969 8.48109375 30.13414062 7.1875 30.1328125 C6.02605469 30.13168457 4.86460937 30.13055664 3.66796875 30.12939453 C1 30 1 30 0 29 C-0.08775605 26.85441173 -0.10695219 24.70595579 -0.09765625 22.55859375 C-0.09443359 21.25341797 -0.09121094 19.94824219 -0.08789062 18.60351562 C-0.07953401 17.2148431 -0.07106905 15.82617123 -0.0625 14.4375 C-0.05748666 13.04492344 -0.05292347 11.65234519 -0.04882812 10.25976562 C-0.03699434 6.8398013 -0.0205088 3.41992156 0 0 Z M4 4 C4 11.26 4 18.52 4 26 C11.26 26 18.52 26 26 26 C26 18.74 26 11.48 26 4 C18.74 4 11.48 4 4 4 Z " fill="#DCDEDF" transform="translate(580,230)"/>
<path d="M0 0 C1.01563019 0.00027191 2.03126038 0.00054382 3.07766724 0.00082397 C15.9457909 0.01665722 28.78041227 0.19215916 41.625 1 C42.81778564 1.07001221 44.01057129 1.14002441 45.23950195 1.2121582 C54.29105494 1.87995575 59.62333322 4.14472214 67.1875 9.1875 C69.95692963 10.06279764 72.5102032 10.33027445 75.40527344 10.39282227 C76.22582214 10.41276749 77.04637085 10.43271271 77.89178467 10.45326233 C78.76796448 10.46997482 79.64414429 10.48668732 80.546875 10.50390625 C81.45125305 10.52468735 82.3556311 10.54546844 83.28741455 10.56687927 C86.17070055 10.6321594 89.0540761 10.69115952 91.9375 10.75 C93.89454044 10.79320571 95.85157188 10.83682065 97.80859375 10.88085938 C102.6014712 10.98781872 107.39443854 11.08914673 112.1875 11.1875 C112.5175 12.8375 112.8475 14.4875 113.1875 16.1875 C112.1975 15.1975 112.1975 15.1975 111.1875 14.1875 C109.25154685 13.88536545 109.25154685 13.88536545 107.01660156 13.93212891 C105.72450775 13.92169052 105.72450775 13.92169052 104.40631104 13.91104126 C103.00635895 13.91253677 103.00635895 13.91253677 101.578125 13.9140625 C99.60676523 13.89376587 97.63541111 13.87291494 95.6640625 13.8515625 C92.55236057 13.8289926 89.44088148 13.81250637 86.32910156 13.80664062 C83.32836439 13.79709933 80.32863557 13.7632918 77.328125 13.7265625 C76.40292053 13.73160797 75.47771606 13.73665344 74.5244751 13.74185181 C68.87406891 13.65610543 65.71143407 12.88469429 61.1875 9.1875 C48.82853034 1.53670926 30.20880326 3.03504144 16.234375 3.08984375 C14.83905081 3.0917144 13.44372596 3.09313524 12.04840088 3.09413147 C8.4186209 3.09790577 4.78888248 3.10769104 1.15911865 3.11883545 C-2.56188393 3.12916049 -6.28289339 3.13365258 -10.00390625 3.13867188 C-17.27345622 3.14931917 -24.54297223 3.16633249 -31.8125 3.1875 C-32.1425 2.5275 -32.4725 1.8675 -32.8125 1.1875 C-21.92672054 -0.22124793 -10.95402416 -0.01091335 0 0 Z " fill="#282828" transform="translate(157.8125,112.8125)"/>
<path d="M0 0 C3.68069887 1.53643852 5.98775204 3.78150945 8.75 6.625 C9.54921875 7.44226563 10.3484375 8.25953125 11.171875 9.1015625 C12.07679688 10.04128906 12.07679688 10.04128906 13 11 C17.34793348 9.15601035 19.86853559 6.11695899 23 2.6796875 C25 1 25 1 29 1 C28.48223379 5.10447392 26.35372556 6.95699523 23.4375 9.75 C22.61121094 10.54921875 21.78492188 11.3484375 20.93359375 12.171875 C20.29550781 12.77515625 19.65742187 13.3784375 19 14 C20.8517185 18.35641143 23.90127449 20.92804984 27.3203125 24.09765625 C29 26 29 26 29 29 C24.31808451 28.54261927 22.36895826 26.80889606 19.1875 23.4375 C18.39730469 22.61121094 17.60710938 21.78492188 16.79296875 20.93359375 C16.20128906 20.29550781 15.60960937 19.65742188 15 19 C11.60383483 21.84808087 8.31766525 24.66789542 5.25 27.875 C3 30 3 30 0 30 C0.53176995 25.86186295 2.77932166 23.72917682 5.5625 20.75 C6.38878906 19.85796875 7.21507812 18.9659375 8.06640625 18.046875 C8.70449219 17.37140625 9.34257813 16.6959375 10 16 C8.46356148 12.31930113 6.21849055 10.01224796 3.375 7.25 C2.55773437 6.45078125 1.74046875 5.6515625 0.8984375 4.828125 C0.27195312 4.22484375 -0.35453125 3.6215625 -1 3 C-0.67 2.01 -0.34 1.02 0 0 Z " fill="#E3E3E4" transform="translate(638,287)"/>
<path d="M0 0 C9.66 1.82 9.66 1.82 12 5 C12.1875 8.6875 12.1875 8.6875 12 12 C10.35 12.33 8.7 12.66 7 13 C7 10.03 7 7.06 7 4 C6.34 4 5.68 4 5 4 C5 7.3 5 10.6 5 14 C8.96 14 12.92 14 17 14 C17 15.32 17 16.64 17 18 C10.92158211 20.84964058 6.62420971 22.72805471 0 21 C0 20.34 0 19.68 0 19 C-2.97 19 -5.94 19 -9 19 C-9.33 17.68 -9.66 16.36 -10 15 C-5.05 13.515 -5.05 13.515 0 12 C0 8.04 0 4.08 0 0 Z " fill="#EDEDED" transform="translate(399,351)"/>
<path d="M0 0 C6.54572459 1.63643115 11.93508287 5.20237034 15.9375 10.625 C19.03537367 17.54965878 18.85586847 24.3761074 16.25 31.4375 C14.7464923 35.24996595 13.64646074 36.28794221 10 38 C9.67 38.99 9.34 39.98 9 41 C3.01558003 44.59065198 -3.1490043 45.03855858 -10 44 C-17.07494132 41.46969139 -21.47517226 37.16709685 -25.015625 30.61328125 C-26.54929452 26.54175383 -26.41672874 23.30619699 -26 19 C-25.01 18.67 -24.02 18.34 -23 18 C-22.98582031 18.6290625 -22.97164062 19.258125 -22.95703125 19.90625 C-22.62767506 25.81685833 -21.53739198 29.59703318 -18.05859375 34.40625 C-17 36 -17 36 -17 38 C-16.236875 38.144375 -15.47375 38.28875 -14.6875 38.4375 C-12 39 -12 39 -9 40 C-2.23757736 40.73269588 3.46261315 40.18181409 9 36 C13.44943776 30.40968076 14.42299139 25.84377692 14.33984375 18.859375 C13.80154837 14.33026907 12.07466009 11.31719053 9 8 C3.36511322 3.60478831 -1.97863011 3.25393743 -9 3 C-9 2.67 -9 2.34 -9 2 C-4.545 1.505 -4.545 1.505 0 1 C0 0.67 0 0.34 0 0 Z " fill="#141515" transform="translate(714,223)"/>
<path d="M0 0 C-2.99262754 1.99508502 -4.85968813 2.36160634 -8.34423828 2.83422852 C-14.56379324 3.63669471 -14.56379324 3.63669471 -19.921875 6.62109375 C-21.20881785 8.69775152 -22.12114257 10.72119269 -23 13 C-23.734109 14.57002873 -24.48504758 16.1322656 -25.25 17.6875 C-25.87068359 18.95980469 -25.87068359 18.95980469 -26.50390625 20.2578125 C-28.51251326 23.93938462 -30.92217384 27.28119751 -33.34838867 30.69677734 C-41.79251041 42.70934995 -48.80771883 55.7029842 -55 69 C-55.37012207 69.79390137 -55.74024414 70.58780273 -56.12158203 71.40576172 C-62.05871797 84.30402137 -66.44989458 97.25900373 -70 111 C-70.33 111 -70.66 111 -71 111 C-69.42909404 81.67642203 -50.17512311 50.46585174 -34.19580078 26.77490234 C-29.6887362 20.08515969 -25.53080306 13.46899885 -22.23828125 6.09375 C-20.73645904 3.55439131 -19.57544835 2.45416471 -17 1 C-13.65234375 0.234375 -13.65234375 0.234375 -9.9375 -0.25 C-8.70902344 -0.42015625 -7.48054688 -0.5903125 -6.21484375 -0.765625 C-3 -1 -3 -1 0 0 Z M-72 111 C-71 115 -71 115 -71 115 Z " fill="#1C1C1C" transform="translate(120,116)"/>
<path d="M0 0 C4.0050434 1.33501447 4.7357118 3.2334918 7 6.75 C8.0209375 8.32007813 8.0209375 8.32007813 9.0625 9.921875 C10.74362392 12.59269283 12.37632398 15.2938733 14 18 C5.75 18 -2.5 18 -11 18 C-9.21569985 13.53924962 -7.1275774 10.04540926 -4.375 6.1875 C-3.95476563 5.59001953 -3.53453125 4.99253906 -3.1015625 4.37695312 C-2.07220272 2.91479435 -1.0367177 1.45695101 0 0 Z " fill="#0A0A0B" transform="translate(651,177)"/>
<path d="M0 0 C3.387199 1.4388102 5.3594104 3.22119499 7.75 6 C8.67039063 7.051875 8.67039063 7.051875 9.609375 8.125 C11 10 11 10 11 12 C4.4 12 -2.2 12 -9 12 C-7.92321277 7.69285109 -7.04559112 6.71008678 -3.9375 3.75 C-3.20402344 3.04359375 -2.47054687 2.3371875 -1.71484375 1.609375 C-1.14894531 1.07828125 -0.58304688 0.5471875 0 0 Z " fill="#1E1E1E" transform="translate(153,158)"/>
<path d="M0 0 C6.58948994 -0.71885345 9.67015793 0.59438275 14.921875 4.58984375 C18.19619972 6.81170695 21.3232697 7.12118175 25.21777344 7.20532227 C26.03832214 7.22526749 26.85887085 7.24521271 27.70428467 7.26576233 C28.58046448 7.28247482 29.45664429 7.29918732 30.359375 7.31640625 C31.26375305 7.33718735 32.1681311 7.35796844 33.09991455 7.37937927 C35.98320055 7.4446594 38.8665761 7.50365952 41.75 7.5625 C43.70704044 7.60570571 45.66407188 7.64932065 47.62109375 7.69335938 C52.4139712 7.80031872 57.20693854 7.90164673 62 8 C62.495 10.475 62.495 10.475 63 13 C62.34 12.34 61.68 11.68 61 11 C59.06404685 10.69786545 59.06404685 10.69786545 56.82910156 10.74462891 C55.53700775 10.73419052 55.53700775 10.73419052 54.21881104 10.72354126 C52.81885895 10.72503677 52.81885895 10.72503677 51.390625 10.7265625 C49.41926523 10.70626587 47.44791111 10.68541494 45.4765625 10.6640625 C42.36486057 10.6414926 39.25338148 10.62500637 36.14160156 10.61914062 C33.14086439 10.60959933 30.14113557 10.5757918 27.140625 10.5390625 C25.7528183 10.54663071 25.7528183 10.54663071 24.3369751 10.55435181 C18.67553496 10.46843799 15.54371125 9.68059695 11 6 C7.32687141 3.97603118 4.15661824 2.61126739 0 2 C0 1.34 0 0.68 0 0 Z " fill="#1E1E1E" transform="translate(208,116)"/>
<path d="M0 0 C6.6 0 13.2 0 20 0 C18.45094188 3.09811624 17.24418595 5.12832131 15.0625 7.6875 C14.55847656 8.28949219 14.05445313 8.89148438 13.53515625 9.51171875 C12 11 12 11 9 12 C7.49405319 10.38050958 5.99539332 8.75424026 4.5 7.125 C3.6646875 6.22007812 2.829375 5.31515625 1.96875 4.3828125 C0 2 0 2 0 0 Z " fill="#1E1E1E" transform="translate(144,319)"/>
<path d="M0 0 C0 6.6 0 13.2 0 20 C-3.19892281 18.4005386 -5.15353735 17.17187081 -7.75 14.875 C-8.36359375 14.33617187 -8.9771875 13.79734375 -9.609375 13.2421875 C-10.06828125 12.83226562 -10.5271875 12.42234375 -11 12 C-10.48847971 7.94437487 -8.53410061 6.34242774 -5.5 3.75 C-4.6853125 3.04359375 -3.870625 2.3371875 -3.03125 1.609375 C-1 0 -1 0 0 0 Z " fill="#1E1E1E" transform="translate(79,234)"/>
<path d="M0 0 C-0.76183594 0.36351563 -0.76183594 0.36351563 -1.5390625 0.734375 C-2.22742188 1.06953125 -2.91578125 1.4046875 -3.625 1.75 C-4.63433594 2.23726563 -4.63433594 2.23726563 -5.6640625 2.734375 C-8.13229936 3.97967635 -8.13229936 3.97967635 -10.52807617 6.04541016 C-15.12327428 8.63237001 -18.70476146 8.56810671 -23.88671875 8.5390625 C-24.82554398 8.55085541 -25.7643692 8.56264832 -26.73164368 8.57479858 C-29.71709955 8.60997693 -32.70185399 8.61922273 -35.6875 8.625 C-38.68364758 8.64133956 -41.67948285 8.66334426 -44.67549133 8.69662476 C-46.53623898 8.71626584 -48.39713017 8.72558843 -50.25798035 8.72354126 C-51.51992973 8.73397964 -51.51992973 8.73397964 -52.80737305 8.74462891 C-53.54650436 8.74588776 -54.28563568 8.74714661 -55.04716492 8.7484436 C-57.32295357 8.89474302 -57.32295357 8.89474302 -60 11 C-59.67 9.35 -59.34 7.7 -59 6 C-57.8354126 5.98541748 -56.6708252 5.97083496 -55.47094727 5.95581055 C-51.11517937 5.89746688 -46.75990909 5.82023852 -42.40454102 5.73754883 C-40.52604296 5.70446816 -38.64744954 5.67638473 -36.76879883 5.65356445 C-34.05509111 5.61970614 -31.34224424 5.56737785 -28.62890625 5.51171875 C-27.38615685 5.50213387 -27.38615685 5.50213387 -26.11830139 5.49235535 C-18.97911661 5.31574583 -12.99578627 3.58267954 -6.6875 0.25 C-3.67809479 -1.14972335 -3.01958327 -0.95287489 0 0 Z " fill="#1E1E1E" transform="translate(595,118)"/>
<path d="M0 0 C3.19892281 1.5994614 5.15353735 2.82812919 7.75 5.125 C8.67039063 5.93324219 8.67039063 5.93324219 9.609375 6.7578125 C10.06828125 7.16773438 10.5271875 7.57765625 11 8 C10.45418801 11.79549259 8.94590705 13.30979295 6.0625 15.75 C5.35222656 16.36359375 4.64195312 16.9771875 3.91015625 17.609375 C2 19 2 19 0 19 C0 12.73 0 6.46 0 0 Z " fill="#1E1E1E" transform="translate(229,235)"/>
<path d="M0 0 C31.68903458 -0.83935911 31.68903458 -0.83935911 38.78515625 5.48046875 C40.70151524 7.66045385 42.08698123 9.2609437 43 12 C42.67 12.99 42.34 13.98 42 15 C41.81308594 14.45730469 41.62617187 13.91460937 41.43359375 13.35546875 C39.66301074 9.5018469 38.12476753 7.43808331 34.1015625 5.87109375 C22.93106263 3.51616497 11.36583436 2.86758527 0 2 C0 1.34 0 0.68 0 0 Z " fill="#1D1D1D" transform="translate(667,114)"/>
<path d="M0 0 C12.54 0 25.08 0 38 0 C38 0.99 38 1.98 38 3 C25.46 3 12.92 3 0 3 C0 2.01 0 1.02 0 0 Z " fill="#000000" transform="translate(371,416)"/>
<path d="M0 0 C0.66 0 1.32 0 2 0 C4.10267836 4.20535671 3.18492744 9.75468759 3.1875 14.375 C3.19974609 15.52484375 3.21199219 16.6746875 3.22460938 17.859375 C3.22654297 18.96539062 3.22847656 20.07140625 3.23046875 21.2109375 C3.23457764 22.22462402 3.23868652 23.23831055 3.24291992 24.28271484 C2.99778067 27.02482522 2.40692215 28.66151904 1 31 C0.67 31 0.34 31 0 31 C0 20.77 0 10.54 0 0 Z " fill="#070707" transform="translate(577,150)"/>
<path d="M0 0 C1.76923828 0.01353516 1.76923828 0.01353516 3.57421875 0.02734375 C4.47785156 0.03894531 5.38148438 0.05054688 6.3125 0.0625 C6.6425 0.7225 6.9725 1.3825 7.3125 2.0625 C6.55066406 2.08828125 5.78882813 2.1140625 5.00390625 2.140625 C-3.47745091 2.60651728 -9.93320406 3.96112509 -16.5625 9.4375 C-18.77944043 12.17607347 -20.26630776 14.84611756 -21.6875 18.0625 C-22.3475 18.0625 -23.0075 18.0625 -23.6875 18.0625 C-23.23525862 13.08784487 -21.0293094 9.64125921 -17.6875 6.0625 C-11.89684488 1.66024757 -7.32561729 -0.07253086 0 0 Z " fill="#151515" transform="translate(594.6875,219.9375)"/>
<path d="M0 0 C0.33 0 0.66 0 1 0 C1 6.93 1 13.86 1 21 C0.67 20.34 0.34 19.68 0 19 C-2.97 19 -5.94 19 -9 19 C-9.33 17.68 -9.66 16.36 -10 15 C-5.05 13.515 -5.05 13.515 0 12 C0 8.04 0 4.08 0 0 Z " fill="#C1C1C1" transform="translate(399,351)"/>
<path d="M0 0 C6.61167322 1.6529183 12.21804408 5.32706612 16 11 C15.625 13.6875 15.625 13.6875 15 16 C14.5875 15.443125 14.175 14.88625 13.75 14.3125 C13.1725 13.549375 12.595 12.78625 12 12 C11.401875 11.154375 10.80375 10.30875 10.1875 9.4375 C5.35174735 4.04908991 0.08404757 3.58171523 -6.8046875 3.11328125 C-7.52914062 3.07589844 -8.25359375 3.03851563 -9 3 C-9 2.67 -9 2.34 -9 2 C-4.545 1.505 -4.545 1.505 0 1 C0 0.67 0 0.34 0 0 Z " fill="#282929" transform="translate(714,223)"/>
<path d="M0 0 C-3.41773187 2.27848791 -6.48207986 2.80979246 -10.4375 3.5 C-16.45288661 4.53159383 -16.45288661 4.53159383 -22 7 C-20.52109699 3.87787143 -19.586485 2.28609024 -16.4375 0.75 C-5.14285714 -1.71428571 -5.14285714 -1.71428571 0 0 Z " fill="#292929" transform="translate(120,116)"/>
<path d="M0 0 C2.5 0.3125 2.5 0.3125 5 1 C6.4783226 3.95664519 6.06032783 6.74229737 6 10 C4.35 10.33 2.7 10.66 1 11 C1 8.03 1 5.06 1 2 C0.34 1.67 -0.32 1.34 -1 1 C-0.67 0.67 -0.34 0.34 0 0 Z " fill="#E9E9E9" transform="translate(405,353)"/>
<path d="M0 0 C0.33 0 0.66 0 1 0 C1.0093457 0.72590332 1.01869141 1.45180664 1.02832031 2.19970703 C1.08221281 5.50881214 1.16582439 8.81653238 1.25 12.125 C1.26417969 13.26710937 1.27835938 14.40921875 1.29296875 15.5859375 C1.48088241 22.05016752 1.79930787 26.00957775 6 31 C6 31.66 6 32.32 6 33 C4.515 33.495 4.515 33.495 3 34 C0.09174996 29.93113344 -0.35854769 27.13010844 -0.29296875 22.16796875 C-0.28330078 20.87568359 -0.27363281 19.58339844 -0.26367188 18.25195312 C-0.23860985 16.8971293 -0.21321506 15.54231159 -0.1875 14.1875 C-0.17244013 12.81316555 -0.15875401 11.43881532 -0.14648438 10.06445312 C-0.11116628 6.70923368 -0.06183851 3.35481834 0 0 Z " fill="#141414" transform="translate(228,152)"/>
<path d="M0 0 C-0.33 0.99 -0.66 1.98 -1 3 C-3.06640625 3.94921875 -3.06640625 3.94921875 -5.5625 4.6875 C-6.38878906 4.93886719 -7.21507812 5.19023437 -8.06640625 5.44921875 C-8.70449219 5.63097656 -9.34257812 5.81273437 -10 6 C-10.33 5.34 -10.66 4.68 -11 4 C-11.66 3.67 -12.32 3.34 -13 3 C-11.5903653 2.29819469 -10.17192359 1.61406042 -8.75 0.9375 C-7.96109375 0.55464844 -7.1721875 0.17179687 -6.359375 -0.22265625 C-3.74006478 -1.08564091 -2.55144824 -0.93045933 0 0 Z " fill="#B8B8B8" transform="translate(417,366)"/>
<path d="M0 0 C0.598125 0.20625 1.19625 0.4125 1.8125 0.625 C2.9375 4.375 2.9375 4.375 1.8125 6.625 C0.1625 6.625 -1.4875 6.625 -3.1875 6.625 C-3.8475 4.975 -4.5075 3.325 -5.1875 1.625 C-2.1875 -0.375 -2.1875 -0.375 0 0 Z " fill="#010101" transform="translate(418.1875,312.375)"/>
<path d="M0 0 C2.625 0.375 2.625 0.375 5 1 C5.33 1.99 5.66 2.98 6 4 C5.01 5.485 5.01 5.485 4 7 C2.35 6.67 0.7 6.34 -1 6 C-1.625 4.125 -1.625 4.125 -2 2 C-1.34 1.34 -0.68 0.68 0 0 Z " fill="#000000" transform="translate(401,312)"/>
<path d="M0 0 C1.4540625 0.0309375 1.4540625 0.0309375 2.9375 0.0625 C3.625 1.875 3.625 1.875 3.9375 4.0625 C2.75 5.875 2.75 5.875 0.9375 7.0625 C-1.25 6.75 -1.25 6.75 -3.0625 6.0625 C-3.44468767 4.40635343 -3.77645102 2.73792976 -4.0625 1.0625 C-3.0625 0.0625 -3.0625 0.0625 0 0 Z " fill="#010101" transform="translate(410.0625,301.9375)"/>
<path d="M0 0 C2.1875 0.3125 2.1875 0.3125 4 1 C4.38218767 2.65614657 4.71395102 4.32457024 5 6 C4 7 4 7 1.4375 7.0625 C0.2309375 7.0315625 0.2309375 7.0315625 -1 7 C-1.66 5.68 -2.32 4.36 -3 3 C-1.75 1.4375 -1.75 1.4375 0 0 Z " fill="#010101" transform="translate(373,291)"/>
<path d="M0 0 C2.625 0.375 2.625 0.375 5 1 C5.33 1.99 5.66 2.98 6 4 C5.01 5.485 5.01 5.485 4 7 C2.35 6.67 0.7 6.34 -1 6 C-1.625 4.125 -1.625 4.125 -2 2 C-1.34 1.34 -0.68 0.68 0 0 Z " fill="#000000" transform="translate(387,312)"/>
<path d="M0 0 C2.625 0.375 2.625 0.375 5 1 C5.042721 2.66611905 5.04063832 4.33382885 5 6 C4 7 4 7 1.4375 7.0625 C0.2309375 7.0315625 0.2309375 7.0315625 -1 7 C-1.625 4.625 -1.625 4.625 -2 2 C-1.34 1.34 -0.68 0.68 0 0 Z " fill="#010101" transform="translate(430,291)"/>
<path d="M0 0 C2.475 0.99 2.475 0.99 5 2 C4.67 3.65 4.34 5.3 4 7 C2.35 7 0.7 7 -1 7 C-1.66 5.68 -2.32 4.36 -3 3 C-2.01 2.01 -1.02 1.02 0 0 Z " fill="#000000" transform="translate(416,291)"/>
<path d="M0 0 C1.98 0 3.96 0 6 0 C7.125 3.75 7.125 3.75 6 6 C4.02 6 2.04 6 0 6 C-1.125 2.25 -1.125 2.25 0 0 Z " fill="#000000" transform="translate(393,302)"/>
<path d="M0 0 C2.6875 0.875 2.6875 0.875 5 2 C4.34 3.65 3.68 5.3 3 7 C1.35 6.67 -0.3 6.34 -2 6 C-2.33 4.68 -2.66 3.36 -3 2 C-2.01 1.34 -1.02 0.68 0 0 Z " fill="#000000" transform="translate(402,291)"/>
<path d="M0 0 C0.61875 0.268125 1.2375 0.53625 1.875 0.8125 C2.205 1.8025 2.535 2.7925 2.875 3.8125 C1.885 5.2975 1.885 5.2975 0.875 6.8125 C-0.775 6.4825 -2.425 6.1525 -4.125 5.8125 C-4.455 4.4925 -4.785 3.1725 -5.125 1.8125 C-2.125 -0.1875 -2.125 -0.1875 0 0 Z " fill="#000000" transform="translate(390.125,291.1875)"/>
<path d="M0 0 C1.2684375 0.12375 1.2684375 0.12375 2.5625 0.25 C3.2225 1.24 3.8825 2.23 4.5625 3.25 C3.5725 4.735 3.5725 4.735 2.5625 6.25 C-0.0625 6.4375 -0.0625 6.4375 -2.4375 6.25 C-2.81968767 4.59385343 -3.15145102 2.92542976 -3.4375 1.25 C-2.4375 0.25 -2.4375 0.25 0 0 Z " fill="#000000" transform="translate(424.4375,301.75)"/>
<path d="M0 0 C0.78375 0.04125 1.5675 0.0825 2.375 0.125 C2.75718767 1.78114657 3.08895102 3.44957024 3.375 5.125 C2.375 6.125 2.375 6.125 -0.1875 6.1875 C-1.3940625 6.1565625 -1.3940625 6.1565625 -2.625 6.125 C-3.285 4.805 -3.945 3.485 -4.625 2.125 C-2.625 0.125 -2.625 0.125 0 0 Z " fill="#000000" transform="translate(381.625,301.875)"/>
<path d="M0 0 C0.33 0.66 0.66 1.32 1 2 C-5.2293578 11.01223242 -5.2293578 11.01223242 -10 13 C-10.66 12.67 -11.32 12.34 -12 12 C-8 8 -4 4 0 0 Z " fill="#171717" transform="translate(674,197)"/>
<path d="M0 0 C0 0.33 0 0.66 0 1 C-2.97 1 -5.94 1 -9 1 C-9 1.66 -9 2.32 -9 3 C-13.29 3 -17.58 3 -22 3 C-22.33 2.34 -22.66 1.68 -23 1 C-15.307359 0.15199233 -7.73708326 -0.12152487 0 0 Z " fill="#3A3A3A" transform="translate(148,113)"/>
<path d="M0 0 C0 0.33 0 0.66 0 1 C-0.87011719 1.12955078 -0.87011719 1.12955078 -1.7578125 1.26171875 C-7.58831944 2.3104403 -10.75654564 3.86535216 -15 8 C-15.33 7.01 -15.66 6.02 -16 5 C-9.85399743 -0.21074131 -8.05100064 -1.16869364 0 0 Z " fill="#171717" transform="translate(244,143)"/>
<path d="M0 0 C1.2065625 0.0309375 1.2065625 0.0309375 2.4375 0.0625 C2.7675 1.7125 3.0975 3.3625 3.4375 5.0625 C1.1275 5.0625 -1.1825 5.0625 -3.5625 5.0625 C-3.5625 0.08689024 -3.5625 0.08689024 0 0 Z " fill="#010101" transform="translate(428.5625,414.9375)"/>
<path d="M0 0 C4.62 0.66 9.24 1.32 14 2 C12 4 12 4 9.6875 4.08203125 C8.800625 3.99308594 7.91375 3.90414062 7 3.8125 C5.6696875 3.69841797 5.6696875 3.69841797 4.3125 3.58203125 C2 3 2 3 0 0 Z " fill="#060606" transform="translate(232,185)"/>
<path d="M0 0 C2.25245881 2.68841859 3.88213958 4.64641875 5 8 C4.01 8.33 3.02 8.66 2 9 C-1.07692308 4.56923077 -1.07692308 4.56923077 -0.6875 1.6875 C-0.460625 1.130625 -0.23375 0.57375 0 0 Z " fill="#313131" transform="translate(229,177)"/>
<path d="M0 0 C0 0.99 0 1.98 0 3 C-2.97 3 -5.94 3 -9 3 C-9 2.34 -9 1.68 -9 1 C-6.04335481 -0.4783226 -3.25770263 -0.06032783 0 0 Z " fill="#2E2E2E" transform="translate(689,114)"/>
<path d="M0 0 C0.33 0.66 0.66 1.32 1 2 C-1.66666667 4.66666667 -4.33333333 7.33333333 -7 10 C-7 8.33333333 -7 6.66666667 -7 5 C-4.75598043 3.05124617 -2.66363467 1.33181733 0 0 Z " fill="#1B1B1B" transform="translate(728,255)"/>
<path d="M0 0 C0.99 0.66 1.98 1.32 3 2 C1.824375 2.928125 1.824375 2.928125 0.625 3.875 C-1.96837647 5.89858661 -1.96837647 5.89858661 -4 8 C-4.33 7.01 -4.66 6.02 -5 5 C-3.35 3.35 -1.7 1.7 0 0 Z " fill="#272828" transform="translate(697,227)"/>
<path d="M0 0 C2.25245881 2.68841859 3.88213958 4.64641875 5 8 C4.01 8 3.02 8 2 8 C0 6 0 6 -0.125 2.875 C-0.08375 1.92625 -0.0425 0.9775 0 0 Z " fill="#303030" transform="translate(553,177)"/>
<path d="M0 0 C1.22589844 0.01353516 1.22589844 0.01353516 2.4765625 0.02734375 C3.41628906 0.04474609 3.41628906 0.04474609 4.375 0.0625 C5.035 1.3825 5.695 2.7025 6.375 4.0625 C5.715 4.0625 5.055 4.0625 4.375 4.0625 C4.375 3.4025 4.375 2.7425 4.375 2.0625 C0.745 2.3925 -2.885 2.7225 -6.625 3.0625 C-6.625 2.4025 -6.625 1.7425 -6.625 1.0625 C-4.21954362 -0.14022819 -2.67503047 -0.03821472 0 0 Z " fill="#191919" transform="translate(565.625,141.9375)"/>
<path d="M0 0 C1.32 0.66 2.64 1.32 4 2 C-1.445 3.485 -1.445 3.485 -7 5 C-3 1 -3 1 0 0 Z " fill="#CECECE" transform="translate(115,104)"/>
<path d="M0 0 C0.66 0.99 1.32 1.98 2 3 C0.68 4.32 -0.64 5.64 -2 7 C-2.33 6.01 -2.66 5.02 -3 4 C-1.5625 1.8125 -1.5625 1.8125 0 0 Z " fill="#2A2A2A" transform="translate(576,179)"/>
<path d="M0 0 C1.65 1.32 3.3 2.64 5 4 C4.67 4.99 4.34 5.98 4 7 C2.35 5.35 0.7 3.7 -1 2 C-0.67 1.34 -0.34 0.68 0 0 Z " fill="#1B1B1B" transform="translate(573,144)"/>
</svg>
